<svg width="64" height="64" viewBox="0 0 64 64" fill="none" xmlns="http://www.w3.org/2000/svg">
  <rect width="64" height="64" rx="18" fill="#FFF7FA"/>
  <rect x="4.5" y="4.5" width="55" height="55" rx="13.5" stroke="#F1D9E2"/>
  <path d="M20 17.5C20 15.567 21.567 14 23.5 14H30.5C39.613 14 45.5 19.542 45.5 28.287C45.5 37.032 39.613 42.574 30.5 42.574H26.5V46.5C26.5 48.433 24.933 50 23 50C21.067 50 19.5 48.433 19.5 46.5V17.5H20ZM26.5 20.6V35.974H30.1C35.928 35.974 38.8 33.011 38.8 28.287C38.8 23.563 35.928 20.6 30.1 20.6H26.5Z" fill="#1F1F1F"/>
  <path d="M26.5 17.2C26.5 15.433 27.933 14 29.7 14H43.4C45.167 14 46.6 15.433 46.6 17.2C46.6 18.967 45.167 20.4 43.4 20.4H26.5V17.2Z" fill="#C85D86"/>
  <path d="M26.5 27.3H40.4C42.057 27.3 43.4 28.643 43.4 30.3C43.4 31.957 42.057 33.3 40.4 33.3H26.5V27.3Z" fill="#D97C9E"/>
</svg>
